{"title":"Malice.1993.DVDrip.AC3","uid":5315250,"size":1311248384,"categoryP":"video","categoryS":"movies","magnet":"?xt=urn:btih:d85519003e447cf64ecb9e4928969e61cd1355df&amp;dn=Malice.1993.DVDrip.AC3&amp;tr=udp%3A%2F%2Ftracker.openbittorrent.com%3A80&amp;tr=udp%3A%2F%2Fopen.demonii.com%3A1337&amp;tr=udp%3A%2F%2Ftracker.coppersurfer.tk%3A6969&amp;tr=udp%3A%2F%2Fexodus.desync.com%3A6969","seeders":1,"leechers":0,"uploader":"aliahim","files":-1,"time":1264692708,"description":"A tale about a happily married couple who would like to have children. Tracy teaches infants, Andy's a college professor. Things are never the same after she is taken to hospital and operated upon by Jed, a &quot;know all&quot; doctor. \n\nMalice.avi\n      Format : AVI\n      Format/Info : Audio Video Interleave\n      File size : 1.22 GiB\n      Duration : 1h 42mn\n      Overall bit rate : 1 708 Kbps\n      Writing application : VirtualDubMod 1.5.4.1 (build 2178/release)\n      Writing library : VirtualDubMod build 2178/release\n   Video\n      Format : MPEG-4 Visual\n      Format profile : Streaming Video@L1\n      Format settings, BVOP : Yes\n      Format settings, QPel : No\n      Format settings, GMC : No warppoints\n      Format settings, Matrix : Custom\n      Codec ID : XVID\n      Codec ID/Hint : XviD\n      Duration : 1h 42mn\n      Bit rate : 1 317 Kbps\n      Width : 720 pixels\n      Height : 544 pixels\n      Display aspect ratio : 4/3\n      Frame rate : 25.000 fps\n      Resolution : 24 bits\n      Colorimetry : 4:2:0\n      Scan type : Progressive\n      Bits/(Pixel*Frame) : 0.135\n      Stream size : 964 MiB (77%)\n      Writing library : XviD 50\n   Audio\n      Format : AC-3\n      Format/Info : Audio Coding 3\n      Codec ID : 2000\n      Duration : 1h 42mn\n      Bit rate mode : Constant\n      Bit rate : 384 Kbps\n      Channel(s) : 6 channels\n      Channel positions : Front: L C R, Surround: L R, LFE\n      Sampling rate : 48.0 KHz\n      Stream size : 281 MiB (22%)\n      Alignment : Aligned on interleaves\n      Interleave, duration : 96 ms (2.40 video frames)\n      Interleave, preload duration : 96 ms\n      Language : English\n\nENJOY!","torrent":{"xt":"urn:btih:d85519003e447cf64ecb9e4928969e61cd1355df","amp;dn":"Malice.1993.DVDrip.AC3","amp;tr":["udp%3A%2F%2Ftracker.openbittorrent.com%3A80","udp%3A%2F%2Fopen.demonii.com%3A1337","udp%3A%2F%2Ftracker.coppersurfer.tk%3A6969","udp%3A%2F%2Fexodus.desync.com%3A6969"],"infoHash":"d85519003e447cf64ecb9e4928969e61cd1355df","infoHashBuffer":{"type":"Buffer","data":[216,85,25,0,62,68,124,246,78,203,158,73,40,150,158,97,205,19,85,223]},"announce":[],"urlList":[]}}